<svg id="Layer_1" data-name="Layer 1" xmlns="http://www.w3.org/2000/svg" viewBox="0 0 407.94 425.76"><defs><style>.cls-1{fill:#37b24d;}.cls-2{fill:#4263eb;}.cls-3{fill:#f76707;}</style></defs><path class="cls-1" d="M-313.23,125.58c-6.64-2.11-13.66-4.67-20.66-7.27-71.21-26.5-102.58-72.18-114.34-98.62a107.66,107.66,0,0,0,33.51,35.22c33.11,24.71,95,46.24,220.2,58.33a37.36,37.36,0,0,1,7.07,1.78l.44.44h0c16.26,7.22-9.93,27.58-42.44,39.54C-348.6,198.7-497.51,93.62-465.6-55.62-484.33,63.85-400.33,101.83-313.23,125.58Z" transform="translate(469.98 55.62)"/><path class="cls-2" d="M-292.59,205.23c5-5.37,10.34-10.33,15.73-15.31,55.54-52,110.43-60.27,139.51-58.81a108.27,108.27,0,0,0-46.58,14.07c-36.72,18.61-83.45,64.89-149.66,171.63a25.49,25.49,0,0,1-5,5.87l-.43-.09h0c-13.54,11.66-20.64-21.12-16.8-55.46,13.51-125.79,173.77-213,293.81-118-99-70-170.52-11.26-230.55,56.12Z" transform="translate(469.98 55.62)"/><path class="cls-3" d="M-376.36,141c2.12,7.21,3.88,13.83,6,21,18.8,73.79-.57,125.62-15.7,150.46A110.84,110.84,0,0,0-376.23,265c1.2-41.12-16.36-104.47-78.16-213.7a17.49,17.49,0,0,1-2.53-7.23l0-.47h0C-460.3,26-428.79,36-400.24,55.85c103.83,72.72,103.15,254.78-38.19,314.29,109.12-53.18,92-144,62.07-229.1Z" transform="translate(469.98 55.62)"/></svg>