<svg xmlns="http://www.w3.org/2000/svg" viewBox="0 0 436.45 389.35"><defs><style>.cls-1{isolation:isolate;}.cls-2{fill:#398e0c;}.cls-2,.cls-3,.cls-4{mix-blend-mode:multiply;}.cls-3{fill:#0e5bd8;}.cls-4{fill:#ff6700;}</style></defs><g class="cls-1"><g id="Layer_2" data-name="Layer 2"><g id="Layer_1-2" data-name="Layer 1"><path class="cls-2" d="M233.81,233.94c-4.58-5.25-9.26-11.08-13.9-16.93-47.17-59.56-50.32-114.89-46.68-143.6a107.59,107.59,0,0,0,10.41,47.49c15.51,38.3,57.3,88.79,158.09,164a37.33,37.33,0,0,1,5.13,5.19l.15.6h0c10.16,14.6-22.79,18.44-56.79,11.82C165.67,278.14,92.77,111.1,197.4,0c-77.93,92.47-25.77,168.49,36.41,233.94Z"/><path class="cls-3" d="M210.19,312.75c7.05-2,14.19-3.47,21.38-4.94,74.46-15.7,125.68,5.68,149.8,22a108.26,108.26,0,0,0-47.13-12.1c-41.05-3.12-105,12.25-216.94,69.22a25.26,25.26,0,0,1-7.35,2.41l-.32-.3h0C92,392,102.92,360.29,124,332.9c76.74-100.57,259-92.11,312.44,51.33-48.4-111.16-140-98-226.26-71.48Z"/><path class="cls-4" d="M171.81,214.44c-1.92,7.27-3.85,13.84-5.75,21.08-22.15,72.85-65.58,107.14-91.39,120.54a110.82,110.82,0,0,0,33-35.52C130,286,147.82,222.72,151.57,97.27a17.47,17.47,0,0,1,1.58-7.49l.28-.38h0c6.19-16.81,28,8,42.1,39.81,51.12,116-43.81,271.35-195.53,249,120.88,11.07,153.29-75.48,171.81-163.77Z"/></g></g></g></svg>