<svg width="237" height="216" viewBox="0 0 237 216" fill="none" xmlns="http://www.w3.org/2000/svg">
<path id="Polygon 1" d="M118.154 1.49856e-05L236.332 11.8807L-2.89092e-05 12.1193L118.154 1.49856e-05Z" fill="#2F9E44"/>
<path id="Star 2" d="M234.113 13.6165L188.852 42.2097C148.871 67.468 124.168 111.046 123.03 158.324L121.648 215.725L116.892 154.851C113.494 111.36 90.2072 71.8734 53.7917 47.8539L2.82084 14.2338L50.9628 39.582C91.4491 60.8992 139.749 61.3032 180.586 40.6661L234.113 13.6165Z" fill="#4DABF7"/>
<path id="Polygon 2" d="M190.265 117.962L123.171 213.794L236.39 10.4549L190.265 117.962Z" fill="#F76707"/>
<path id="Polygon 4" d="M122.803 38.323L218.271 50.1896L27.3675 50.4565L122.803 38.323Z" fill="#6FDE38"/>
<path id="Polygon 3" d="M118.019 19.9236L223.44 32.0624L12.5672 31.7848L118.019 19.9236Z" fill="#E03131"/>
<path id="Polygon 5" d="M50.9377 119.432L0.18446 12.7829L122.202 213.62L50.9377 119.432Z" fill="#6741D9"/>
</svg>
